<svg xmlns="http://www.w3.org/2000/svg" viewBox="0 0 512 512">

<g transform="translate(0.000000,512.000000) scale(0.100000,-0.100000)"
fill="#000000" stroke="none">
<path d="M565 5106 c-239 -38 -389 -140 -479 -328 -88 -183 -80 14 -84 -2158
-2 -1415 0 -1950 8 -2020 32 -260 135 -419 332 -514 183 -88 -14 -80 2158 -84
1415 -2 1950 0 2020 8 260 32 419 135 514 332 88 183 80 -14 84 2158 2 1415 0
1950 -8 2020 -32 260 -135 419 -332 514 -183 88 18 80 -2183 82 -1527 2 -1967
0 -2030 -10z m1345 -1486 l0 -220 -315 0 -315 0 0 -1060 0 -1060 -237 2 -238
3 -3 1058 -2 1057 -310 0 -310 0 0 220 0 220 865 0 865 0 0 -220z m1047 -473
c193 -380 381 -759 418 -842 37 -82 68 -151 69 -152 1 -2 42 84 90 190 48 105
234 485 414 842 l327 650 55 0 55 0 267 -1240 c147 -682 270 -1257 273 -1277
l7 -38 -235 0 -235 0 -5 23 c-4 12 -67 306 -142 652 -74 347 -138 641 -141
655 -4 20 -13 6 -45 -75 -22 -55 -174 -359 -338 -675 l-299 -575 -43 -3 -44
-2 -300 582 c-165 321 -321 629 -346 686 l-46 102 -133 -672 c-73 -370 -135
-679 -138 -685 -3 -10 -60 -13 -237 -13 -129 0 -236 3 -238 7 -5 10 516 2524
526 2541 5 7 29 12 60 12 l52 0 352 -693z"/>
</g>
</svg>
